<svg width="513" height="513" viewBox="0 0 513 513" fill="none" xmlns="http://www.w3.org/2000/svg">
<path d="M36 151.21C36 131.865 39.9102 113.961 47.7306 97.4967C55.9626 81.0327 66.87 66.8326 80.4528 54.8962C94.4472 42.9598 110.5 33.493 128.61 26.4958C147.132 19.4986 166.683 16 187.263 16C219.368 16 247.151 21.7624 270.612 33.2872C294.485 44.4004 312.389 57.3658 324.326 72.1834C327.207 75.8878 327.001 79.1805 323.708 82.0617L281.108 126.514C279.461 128.161 277.403 128.984 274.934 128.984C272.876 128.984 271.023 127.955 269.377 125.897C265.673 121.781 260.939 117.665 255.177 113.549C249.826 109.433 243.446 105.729 236.037 102.436C229.04 98.7315 221.426 95.8503 213.194 93.7924C204.962 91.7343 196.524 90.7053 187.88 90.7053C177.59 90.7053 168.123 92.3517 159.48 95.6445C151.248 98.5257 144.251 102.436 138.488 107.375C132.726 112.314 128.198 118.077 124.906 124.662C121.613 131.248 119.966 138.245 119.966 145.654C119.966 157.59 123.877 167.88 131.697 176.524C139.517 185.167 151.248 191.136 166.889 194.428L227.394 206.159C247.151 209.863 264.438 215.832 279.255 224.064C294.485 231.884 307.038 241.351 316.917 252.464C327.207 263.577 335.027 276.131 340.378 290.125C345.729 303.708 348.404 318.114 348.404 333.343C348.404 349.807 344.906 366.065 337.908 382.118C331.323 398.17 321.239 412.576 307.656 425.336C294.485 438.095 278.226 448.385 258.881 456.206C239.536 463.615 217.31 467.319 192.202 467.319C174.503 467.319 157.833 465.467 142.193 461.762C126.964 458.058 112.969 453.325 100.21 447.562C87.8616 441.388 76.9542 434.803 67.4874 427.805C58.0206 420.397 50.2002 413.194 44.0262 406.196C41.145 403.315 41.145 400.022 44.0262 396.318L82.9224 346.309C84.1572 344.251 85.8036 343.222 87.8616 343.222C90.3312 342.81 92.3892 343.427 94.0356 345.074C99.7979 350.425 106.178 355.981 113.175 361.744C120.172 367.094 127.787 372.034 136.019 376.561C144.251 381.089 153.1 384.793 162.567 387.674C172.034 390.556 182.118 391.996 192.819 391.996C215.457 391.996 232.745 387.057 244.681 377.179C256.617 367.3 262.586 354.541 262.586 338.9C262.586 326.552 258.058 315.85 249.003 306.795C240.359 297.328 227.394 290.949 210.107 287.656L149.602 275.308C115.027 268.311 87.45 254.11 66.87 232.707C46.29 211.304 36 184.138 36 151.21Z" fill="black"/>
<path d="M369.313 359.686H473.629C475.21 359.686 476 360.476 476 362.056V391.099C476 392.943 475.473 394.589 474.419 396.038L449.131 428.834L474.419 461.631C475.473 463.079 476 464.726 476 466.57V495.612C476 497.193 475.21 497.983 473.629 497.983H369.313C368.655 497.983 368.062 497.786 367.535 497.39C367.14 496.864 366.943 496.271 366.943 495.612V362.056C366.943 361.398 367.14 360.871 367.535 360.476C368.062 359.949 368.655 359.686 369.313 359.686ZM450.119 472.892L417.52 430.415C416.861 429.361 416.861 428.373 417.52 427.451L450.119 384.777H392.231V472.892H450.119Z" fill="black"/>
</svg>
